<svg width="24" height="20" viewBox="0 0 24 20" fill="none" xmlns="http://www.w3.org/2000/svg">
<path d="M12.0032 7.87182e-06C9.71492 -0.00261382 7.47365 0.649677 5.54412 1.87984C3.61459 3.11001 2.0774 4.86667 1.1141 6.94235C0.150804 9.01803 -0.198369 11.326 0.107823 13.5938C0.414015 15.8615 1.36278 17.9943 2.84207 19.7401L3.06019 19.9946H20.9463L21.1644 19.7401C22.6437 17.9943 23.5925 15.8615 23.8986 13.5938C24.2048 11.326 23.8557 9.01803 22.8924 6.94235C21.9291 4.86667 20.3919 3.11001 18.4624 1.87984C16.5328 0.649677 14.2915 -0.00261382 12.0032 7.87182e-06ZM18.2561 6.89269L13.9518 11.117C14.1718 11.5821 14.2203 12.11 14.0888 12.6074C13.9572 13.1048 13.6541 13.5397 13.2329 13.8352C12.8117 14.1307 12.2996 14.2679 11.7872 14.2224C11.2747 14.1769 10.7948 13.9517 10.4322 13.5866C10.0697 13.2215 9.84791 12.74 9.80604 12.2272C9.76416 11.7144 9.90491 11.2033 10.2034 10.7842C10.5019 10.3652 10.9389 10.0651 11.4372 9.93707C11.9356 9.80904 12.4631 9.86128 12.9266 10.0846L17.2236 5.86024L18.2561 6.89269ZM1.53333 11.3788H4.00539V12.8329H1.50425C1.50425 12.5493 1.4679 12.2731 1.4679 11.9822C1.4679 11.6914 1.48244 11.5823 1.49698 11.3788H1.53333ZM5.08147 4.10799L6.87007 5.8966L5.80127 6.89996L4.00539 5.11863C4.32843 4.75156 4.67579 4.40663 5.04511 4.08618L5.08147 4.10799ZM12.7303 4.02801H11.2762V1.48324H12.0032C12.2723 1.48324 12.5122 1.48324 12.7303 1.5196V4.02801ZM22.5386 11.9895C22.5386 12.2731 22.5386 12.5639 22.5022 12.8402H19.9429V11.386H22.5095C22.524 11.5823 22.5386 11.7859 22.5386 11.9895Z" fill="white"/>
</svg>
