<svg width="25" height="5" viewBox="0 0 25 5" fill="none" xmlns="http://www.w3.org/2000/svg">
<path d="M2.45 0C1.80022 0 1.17705 0.258124 0.717588 0.717588C0.258124 1.17705 0 1.80022 0 2.45C0 3.09978 0.258124 3.72295 0.717588 4.18241C1.17705 4.64188 1.80022 4.9 2.45 4.9C3.09978 4.9 3.72295 4.64188 4.18241 4.18241C4.64188 3.72295 4.9 3.09978 4.9 2.45C4.9 1.80022 4.64188 1.17705 4.18241 0.717588C3.72295 0.258124 3.09978 0 2.45 0ZM9.8 2.45C9.8 1.80022 10.0581 1.17705 10.5176 0.717588C10.9771 0.258124 11.6002 0 12.25 0C12.8998 0 13.5229 0.258124 13.9824 0.717588C14.4419 1.17705 14.7 1.80022 14.7 2.45C14.7 3.09978 14.4419 3.72295 13.9824 4.18241C13.5229 4.64188 12.8998 4.9 12.25 4.9C11.6002 4.9 10.9771 4.64188 10.5176 4.18241C10.0581 3.72295 9.8 3.09978 9.8 2.45ZM19.6 2.45C19.6 1.80022 19.8581 1.17705 20.3176 0.717588C20.7771 0.258124 21.4002 0 22.05 0C22.6998 0 23.3229 0.258124 23.7824 0.717588C24.2419 1.17705 24.5 1.80022 24.5 2.45C24.5 3.09978 24.2419 3.72295 23.7824 4.18241C23.3229 4.64188 22.6998 4.9 22.05 4.9C21.4002 4.9 20.7771 4.64188 20.3176 4.18241C19.8581 3.72295 19.6 3.09978 19.6 2.45Z" fill="white"/>
</svg>
