<svg width="25" height="24" viewBox="0 0 25 24" fill="none" xmlns="http://www.w3.org/2000/svg">
<path d="M8.73821 23.9403L8.2594 20.1098C8.00005 20.0101 7.75586 19.8904 7.52683 19.7507C7.2978 19.6111 7.07316 19.4615 6.85291 19.3019L3.29179 20.7981L0 15.1123L3.08231 12.7781C3.06236 12.6385 3.05239 12.504 3.05239 12.3747V11.5668C3.05239 11.4367 3.06236 11.3018 3.08231 11.1622L0 8.82798L3.29179 3.14216L6.85291 4.63843C7.07236 4.47883 7.30179 4.3292 7.54119 4.18955C7.7806 4.0499 8.02 3.9302 8.2594 3.83045L8.73821 0H15.3218L15.8006 3.83045C16.0599 3.9302 16.3045 4.0499 16.5344 4.18955C16.7642 4.3292 16.9884 4.47883 17.2071 4.63843L20.7682 3.14216L24.06 8.82798L20.9777 11.1622C20.9976 11.3018 21.0076 11.4367 21.0076 11.5668V12.3735C21.0076 12.5036 20.9877 12.6385 20.9478 12.7781L24.0301 15.1123L20.7383 20.7981L17.2071 19.3019C16.9876 19.4615 16.7582 19.6111 16.5188 19.7507C16.2794 19.8904 16.04 20.0101 15.8006 20.1098L15.3218 23.9403H8.73821ZM12.0899 16.1597C13.247 16.1597 14.2345 15.7507 15.0525 14.9328C15.8704 14.1148 16.2794 13.1273 16.2794 11.9701C16.2794 10.813 15.8704 9.8255 15.0525 9.00754C14.2345 8.18958 13.247 7.7806 12.0899 7.7806C10.9128 7.7806 9.92006 8.18958 9.11168 9.00754C8.30329 9.8255 7.8995 10.813 7.9003 11.9701C7.9011 13.1273 8.30529 14.1148 9.11287 14.9328C9.92046 15.7507 10.9128 16.1597 12.0899 16.1597Z" fill="white"/>
</svg>
